<mxfile>
    <diagram name="Page-1" id="e7e014a7-5840-1c2e-5031-d8a46d1fe8dd">
        <mxGraphModel dx="1118" dy="514" grid="1" gridSize="10" guides="1" tooltips="1" connect="1" arrows="1" fold="1" page="1" pageScale="1" pageWidth="1169" pageHeight="826" math="0" shadow="0">
            <root>
                <mxCell id="0"/>
                <mxCell id="1" parent="0"/>
                <mxCell id="2" value="User" style="swimlane;whiteSpace=wrap;startSize=23;" parent="1" vertex="1">
                    <mxGeometry x="160" y="40" width="284.5" height="760" as="geometry">
                        <mxRectangle x="164.5" y="128" width="80" height="23" as="alternateBounds"/>
                    </mxGeometry>
                </mxCell>
                <mxCell id="yuHArtq0eE7rgwhrcc9l-52" style="edgeStyle=orthogonalEdgeStyle;orthogonalLoop=1;jettySize=auto;html=1;exitX=0.5;exitY=1;exitDx=0;exitDy=0;entryX=0.5;entryY=0;entryDx=0;entryDy=0;endArrow=open;endFill=0;strokeWidth=1;endSize=8;startSize=8;rounded=0;" parent="2" source="5" target="7" edge="1">
                    <mxGeometry relative="1" as="geometry"/>
                </mxCell>
                <mxCell id="5" value="" style="ellipse;shape=startState;" parent="2" vertex="1">
                    <mxGeometry x="125" y="40" width="30" height="30" as="geometry"/>
                </mxCell>
                <mxCell id="7" value="Upload file" style="rounded=1;" parent="2" vertex="1">
                    <mxGeometry x="92.5" y="110" width="95" height="40" as="geometry"/>
                </mxCell>
                <mxCell id="yuHArtq0eE7rgwhrcc9l-82" style="edgeStyle=orthogonalEdgeStyle;rounded=0;orthogonalLoop=1;jettySize=auto;html=1;exitX=0.5;exitY=1;exitDx=0;exitDy=0;entryX=0.5;entryY=0;entryDx=0;entryDy=0;endArrow=open;endFill=0;strokeWidth=1;endSize=8;startSize=8;" parent="2" source="yuHArtq0eE7rgwhrcc9l-79" target="yuHArtq0eE7rgwhrcc9l-81" edge="1">
                    <mxGeometry relative="1" as="geometry"/>
                </mxCell>
                <mxCell id="yuHArtq0eE7rgwhrcc9l-79" value="Select outputÂ &#10;format" style="rounded=1;" parent="2" vertex="1">
                    <mxGeometry x="92.5" y="443" width="95" height="40" as="geometry"/>
                </mxCell>
                <mxCell id="yuHArtq0eE7rgwhrcc9l-85" style="edgeStyle=orthogonalEdgeStyle;rounded=0;orthogonalLoop=1;jettySize=auto;html=1;exitX=0.5;exitY=1;exitDx=0;exitDy=0;entryX=0.5;entryY=0;entryDx=0;entryDy=0;endArrow=open;endFill=0;strokeWidth=1;endSize=8;startSize=8;" parent="2" source="yuHArtq0eE7rgwhrcc9l-98" target="yuHArtq0eE7rgwhrcc9l-84" edge="1">
                    <mxGeometry relative="1" as="geometry"/>
                </mxCell>
                <mxCell id="yuHArtq0eE7rgwhrcc9l-81" value="" style="rhombus;whiteSpace=wrap;html=1;rounded=0;" parent="2" vertex="1">
                    <mxGeometry x="120.25" y="519" width="39.5" height="38.75" as="geometry"/>
                </mxCell>
                <mxCell id="yuHArtq0eE7rgwhrcc9l-91" style="edgeStyle=orthogonalEdgeStyle;rounded=0;orthogonalLoop=1;jettySize=auto;html=1;exitX=0.5;exitY=1;exitDx=0;exitDy=0;entryX=0.5;entryY=0;entryDx=0;entryDy=0;endArrow=open;endFill=0;strokeWidth=1;endSize=8;startSize=8;" parent="2" source="yuHArtq0eE7rgwhrcc9l-84" target="yuHArtq0eE7rgwhrcc9l-90" edge="1">
                    <mxGeometry relative="1" as="geometry"/>
                </mxCell>
                <mxCell id="yuHArtq0eE7rgwhrcc9l-84" value="Download file" style="rounded=1;" parent="2" vertex="1">
                    <mxGeometry x="92.5" y="627" width="95" height="40" as="geometry"/>
                </mxCell>
                <mxCell id="yuHArtq0eE7rgwhrcc9l-90" value="" style="ellipse;html=1;shape=endState;rounded=0;" parent="2" vertex="1">
                    <mxGeometry x="125" y="707" width="30" height="30" as="geometry"/>
                </mxCell>
                <mxCell id="yuHArtq0eE7rgwhrcc9l-96" value="[GP5]" style="text;html=1;strokeColor=none;fillColor=none;align=center;verticalAlign=middle;whiteSpace=wrap;rounded=0;" parent="2" vertex="1">
                    <mxGeometry x="195.5" y="528.37" width="40" height="20" as="geometry"/>
                </mxCell>
                <mxCell id="yuHArtq0eE7rgwhrcc9l-97" style="edgeStyle=orthogonalEdgeStyle;rounded=0;orthogonalLoop=1;jettySize=auto;html=1;exitX=1;exitY=0.5;exitDx=0;exitDy=0;endArrow=none;endFill=0;entryX=0;entryY=0.5;entryDx=0;entryDy=0;" parent="2" source="yuHArtq0eE7rgwhrcc9l-81" target="yuHArtq0eE7rgwhrcc9l-96" edge="1">
                    <mxGeometry relative="1" as="geometry">
                        <mxPoint x="159.75" y="538.375" as="sourcePoint"/>
                        <mxPoint x="195.5" y="547" as="targetPoint"/>
                    </mxGeometry>
                </mxCell>
                <mxCell id="yuHArtq0eE7rgwhrcc9l-98" value="[MIDI]" style="text;html=1;strokeColor=none;fillColor=none;align=center;verticalAlign=middle;whiteSpace=wrap;rounded=0;" parent="2" vertex="1">
                    <mxGeometry x="120" y="567" width="40" height="20" as="geometry"/>
                </mxCell>
                <mxCell id="yuHArtq0eE7rgwhrcc9l-99" style="edgeStyle=orthogonalEdgeStyle;rounded=0;orthogonalLoop=1;jettySize=auto;html=1;exitX=0.5;exitY=1;exitDx=0;exitDy=0;endArrow=none;endFill=0;entryX=0.5;entryY=0;entryDx=0;entryDy=0;" parent="2" source="yuHArtq0eE7rgwhrcc9l-81" target="yuHArtq0eE7rgwhrcc9l-98" edge="1">
                    <mxGeometry relative="1" as="geometry">
                        <mxPoint x="304.5" y="597.75" as="sourcePoint"/>
                        <mxPoint x="145.5" y="558" as="targetPoint"/>
                    </mxGeometry>
                </mxCell>
                <mxCell id="ZoeWrClg7RPE6zchPd6N-38" value="Receive&#10;notification" style="rounded=1;" parent="2" vertex="1">
                    <mxGeometry x="92.5" y="220" width="95" height="40" as="geometry"/>
                </mxCell>
                <mxCell id="ZoeWrClg7RPE6zchPd6N-40" value="" style="whiteSpace=wrap;html=1;direction=west;" parent="2" vertex="1">
                    <mxGeometry x="258.75" y="82.5" width="8.5" height="95" as="geometry"/>
                </mxCell>
                <mxCell id="yuHArtq0eE7rgwhrcc9l-59" style="edgeStyle=orthogonalEdgeStyle;orthogonalLoop=1;jettySize=auto;html=1;exitX=1;exitY=0.5;exitDx=0;exitDy=0;endArrow=open;endFill=0;strokeWidth=1;endSize=8;startSize=8;rounded=0;entryX=1;entryY=0.5;entryDx=0;entryDy=0;" parent="2" source="7" target="ZoeWrClg7RPE6zchPd6N-40" edge="1">
                    <mxGeometry relative="1" as="geometry">
                        <mxPoint x="240" y="130" as="targetPoint"/>
                    </mxGeometry>
                </mxCell>
                <mxCell id="3" value="I/O Controller" style="swimlane;whiteSpace=wrap;" parent="1" vertex="1">
                    <mxGeometry x="444.5" y="40" width="280" height="760" as="geometry"/>
                </mxCell>
                <mxCell id="yuHArtq0eE7rgwhrcc9l-50" value="Transoform to&#10;time-series" style="rounded=1;" parent="3" vertex="1">
                    <mxGeometry x="92.5" y="134.5" width="95" height="40" as="geometry"/>
                </mxCell>
                <mxCell id="yuHArtq0eE7rgwhrcc9l-75" value="Transform to &#10;MIDI" style="rounded=1;" parent="3" vertex="1">
                    <mxGeometry x="92.5" y="443" width="95" height="40" as="geometry"/>
                </mxCell>
                <mxCell id="yuHArtq0eE7rgwhrcc9l-87" value="Transform to &#10;GP5" style="rounded=1;" parent="3" vertex="1">
                    <mxGeometry x="92.5" y="518.37" width="95" height="40" as="geometry"/>
                </mxCell>
                <mxCell id="ZoeWrClg7RPE6zchPd6N-28" value="Send&#10;notification" style="rounded=1;" parent="3" vertex="1">
                    <mxGeometry x="92.5" y="220" width="95" height="40" as="geometry"/>
                </mxCell>
                <mxCell id="4" value="Model" style="swimlane;whiteSpace=wrap;" parent="1" vertex="1">
                    <mxGeometry x="724.5" y="40" width="280" height="760" as="geometry"/>
                </mxCell>
                <mxCell id="yuHArtq0eE7rgwhrcc9l-72" style="edgeStyle=orthogonalEdgeStyle;rounded=0;orthogonalLoop=1;jettySize=auto;html=1;exitX=0.75;exitY=1;exitDx=0;exitDy=0;entryX=0;entryY=0.25;entryDx=0;entryDy=0;endArrow=open;endFill=0;strokeWidth=1;endSize=8;startSize=8;" parent="4" source="yuHArtq0eE7rgwhrcc9l-61" target="yuHArtq0eE7rgwhrcc9l-71" edge="1">
                    <mxGeometry relative="1" as="geometry"/>
                </mxCell>
                <mxCell id="yuHArtq0eE7rgwhrcc9l-61" value="Read model&#10;from storage" style="rounded=1;" parent="4" vertex="1">
                    <mxGeometry x="93.5" y="87" width="95" height="40" as="geometry"/>
                </mxCell>
                <mxCell id="UBPn45M-pCXPHl5LcUrH-8" style="edgeStyle=orthogonalEdgeStyle;rounded=0;orthogonalLoop=1;jettySize=auto;html=1;exitX=0.5;exitY=1;exitDx=0;exitDy=0;entryX=0.5;entryY=0;entryDx=0;entryDy=0;endArrow=open;endFill=0;endSize=8;" parent="4" source="yuHArtq0eE7rgwhrcc9l-64" target="UBPn45M-pCXPHl5LcUrH-7" edge="1">
                    <mxGeometry relative="1" as="geometry"/>
                </mxCell>
                <mxCell id="yuHArtq0eE7rgwhrcc9l-64" value="Reduce noise" style="rounded=1;" parent="4" vertex="1">
                    <mxGeometry x="93.5" y="269" width="95" height="40" as="geometry"/>
                </mxCell>
                <mxCell id="yuHArtq0eE7rgwhrcc9l-67" value="Transofrm to&#10;Interval &#10;time-series" style="rounded=1;" parent="4" vertex="1">
                    <mxGeometry x="93.5" y="439" width="95" height="48" as="geometry"/>
                </mxCell>
                <mxCell id="ZoeWrClg7RPE6zchPd6N-32" style="edgeStyle=orthogonalEdgeStyle;rounded=0;orthogonalLoop=1;jettySize=auto;html=1;exitX=1;exitY=0.5;exitDx=0;exitDy=0;entryX=0;entryY=0.5;entryDx=0;entryDy=0;endArrow=open;endFill=0;endSize=8;" parent="4" source="yuHArtq0eE7rgwhrcc9l-71" target="ZoeWrClg7RPE6zchPd6N-30" edge="1">
                    <mxGeometry relative="1" as="geometry"/>
                </mxCell>
                <mxCell id="yuHArtq0eE7rgwhrcc9l-71" value="" style="whiteSpace=wrap;html=1;direction=south;" parent="4" vertex="1">
                    <mxGeometry x="93.5" y="174.5" width="95" height="8.5" as="geometry"/>
                </mxCell>
                <mxCell id="UBPn45M-pCXPHl5LcUrH-9" style="edgeStyle=orthogonalEdgeStyle;rounded=0;orthogonalLoop=1;jettySize=auto;html=1;exitX=0.5;exitY=1;exitDx=0;exitDy=0;entryX=0.5;entryY=0;entryDx=0;entryDy=0;endArrow=open;endFill=0;endSize=8;" parent="4" source="UBPn45M-pCXPHl5LcUrH-7" target="yuHArtq0eE7rgwhrcc9l-67" edge="1">
                    <mxGeometry relative="1" as="geometry"/>
                </mxCell>
                <mxCell id="UBPn45M-pCXPHl5LcUrH-7" value="Spectral&#10;decomposition" style="rounded=1;" parent="4" vertex="1">
                    <mxGeometry x="93.5" y="357" width="95" height="40" as="geometry"/>
                </mxCell>
                <mxCell id="ZoeWrClg7RPE6zchPd6N-35" style="edgeStyle=orthogonalEdgeStyle;rounded=0;orthogonalLoop=1;jettySize=auto;html=1;exitX=1;exitY=0.5;exitDx=0;exitDy=0;entryX=0.5;entryY=0;entryDx=0;entryDy=0;endArrow=open;endFill=0;endSize=8;" parent="4" source="ZoeWrClg7RPE6zchPd6N-30" target="yuHArtq0eE7rgwhrcc9l-64" edge="1">
                    <mxGeometry relative="1" as="geometry"/>
                </mxCell>
                <mxCell id="ZoeWrClg7RPE6zchPd6N-30" value="" style="whiteSpace=wrap;html=1;direction=south;" parent="4" vertex="1">
                    <mxGeometry x="93.5" y="210" width="95" height="8.5" as="geometry"/>
                </mxCell>
                <mxCell id="yuHArtq0eE7rgwhrcc9l-73" style="edgeStyle=orthogonalEdgeStyle;rounded=0;orthogonalLoop=1;jettySize=auto;html=1;exitX=1;exitY=0.5;exitDx=0;exitDy=0;entryX=0;entryY=0.75;entryDx=0;entryDy=0;endArrow=open;endFill=0;strokeWidth=1;endSize=8;startSize=8;" parent="1" source="yuHArtq0eE7rgwhrcc9l-50" target="yuHArtq0eE7rgwhrcc9l-71" edge="1">
                    <mxGeometry relative="1" as="geometry"/>
                </mxCell>
                <mxCell id="yuHArtq0eE7rgwhrcc9l-76" style="edgeStyle=orthogonalEdgeStyle;rounded=0;orthogonalLoop=1;jettySize=auto;html=1;exitX=0;exitY=0.5;exitDx=0;exitDy=0;entryX=1;entryY=0.5;entryDx=0;entryDy=0;endArrow=open;endFill=0;strokeWidth=1;endSize=8;startSize=8;" parent="1" source="yuHArtq0eE7rgwhrcc9l-67" target="yuHArtq0eE7rgwhrcc9l-75" edge="1">
                    <mxGeometry relative="1" as="geometry"/>
                </mxCell>
                <mxCell id="yuHArtq0eE7rgwhrcc9l-80" style="edgeStyle=orthogonalEdgeStyle;rounded=0;orthogonalLoop=1;jettySize=auto;html=1;exitX=0;exitY=0.5;exitDx=0;exitDy=0;entryX=1;entryY=0.5;entryDx=0;entryDy=0;endArrow=open;endFill=0;strokeWidth=1;endSize=8;startSize=8;" parent="1" source="yuHArtq0eE7rgwhrcc9l-75" target="yuHArtq0eE7rgwhrcc9l-79" edge="1">
                    <mxGeometry relative="1" as="geometry"/>
                </mxCell>
                <mxCell id="yuHArtq0eE7rgwhrcc9l-88" style="edgeStyle=orthogonalEdgeStyle;rounded=0;orthogonalLoop=1;jettySize=auto;html=1;exitX=1;exitY=0.5;exitDx=0;exitDy=0;endArrow=open;endFill=0;strokeWidth=1;endSize=8;startSize=8;" parent="1" source="yuHArtq0eE7rgwhrcc9l-96" target="yuHArtq0eE7rgwhrcc9l-87" edge="1">
                    <mxGeometry relative="1" as="geometry"/>
                </mxCell>
                <mxCell id="yuHArtq0eE7rgwhrcc9l-89" style="edgeStyle=orthogonalEdgeStyle;rounded=0;orthogonalLoop=1;jettySize=auto;html=1;exitX=0.5;exitY=1;exitDx=0;exitDy=0;entryX=1;entryY=0.5;entryDx=0;entryDy=0;endArrow=open;endFill=0;strokeWidth=1;endSize=8;startSize=8;" parent="1" source="yuHArtq0eE7rgwhrcc9l-87" target="yuHArtq0eE7rgwhrcc9l-84" edge="1">
                    <mxGeometry relative="1" as="geometry"/>
                </mxCell>
                <mxCell id="ZoeWrClg7RPE6zchPd6N-34" style="edgeStyle=orthogonalEdgeStyle;rounded=0;orthogonalLoop=1;jettySize=auto;html=1;exitX=1;exitY=0.75;exitDx=0;exitDy=0;entryX=1;entryY=0.5;entryDx=0;entryDy=0;" parent="1" source="ZoeWrClg7RPE6zchPd6N-30" target="ZoeWrClg7RPE6zchPd6N-28" edge="1">
                    <mxGeometry relative="1" as="geometry"/>
                </mxCell>
                <mxCell id="ZoeWrClg7RPE6zchPd6N-39" style="edgeStyle=orthogonalEdgeStyle;rounded=0;orthogonalLoop=1;jettySize=auto;html=1;exitX=0;exitY=0.5;exitDx=0;exitDy=0;entryX=1;entryY=0.5;entryDx=0;entryDy=0;endArrow=open;endFill=0;endSize=8;" parent="1" source="ZoeWrClg7RPE6zchPd6N-28" target="ZoeWrClg7RPE6zchPd6N-38" edge="1">
                    <mxGeometry relative="1" as="geometry"/>
                </mxCell>
                <mxCell id="ZoeWrClg7RPE6zchPd6N-41" style="edgeStyle=orthogonalEdgeStyle;rounded=0;orthogonalLoop=1;jettySize=auto;html=1;exitX=0;exitY=0.25;exitDx=0;exitDy=0;entryX=0;entryY=0.5;entryDx=0;entryDy=0;endArrow=open;endFill=0;endSize=8;" parent="1" source="ZoeWrClg7RPE6zchPd6N-40" target="yuHArtq0eE7rgwhrcc9l-50" edge="1">
                    <mxGeometry relative="1" as="geometry"/>
                </mxCell>
                <mxCell id="ZoeWrClg7RPE6zchPd6N-42" style="edgeStyle=orthogonalEdgeStyle;rounded=0;orthogonalLoop=1;jettySize=auto;html=1;exitX=0;exitY=0.75;exitDx=0;exitDy=0;entryX=0;entryY=0.5;entryDx=0;entryDy=0;endArrow=open;endFill=0;endSize=8;" parent="1" source="ZoeWrClg7RPE6zchPd6N-40" target="yuHArtq0eE7rgwhrcc9l-61" edge="1">
                    <mxGeometry relative="1" as="geometry"/>
                </mxCell>
            </root>
        </mxGraphModel>
    </diagram>
</mxfile>